<svg width="102" height="92" viewBox="0 0 102 92" fill="none" xmlns="http://www.w3.org/2000/svg">
    <g opacity="0.8">
        <ellipse cx="50.7304" cy="43.227" rx="43.227" ry="43.227" fill="#A42CD8" fill-opacity="0.4"/>
        <g clip-path="url(#clip0_949_2263)">
            <path d="M28.1657 57.5137H8.17017V76.1806H28.1657V57.5137Z" fill="#3F3D56"/>
            <path d="M36.336 82.6711H0V51.0232H36.336V82.6711ZM0.215006 82.4566H36.121V51.2378H0.215006V82.4566Z" fill="#3F3D56"/>
            <path d="M86.1552 39.0306C83.128 39.0306 80.1688 38.1348 77.6517 36.4565C75.1347 34.7781 73.1729 32.3926 72.0145 29.6016C70.856 26.8106 70.5529 23.7395 71.1435 20.7766C71.734 17.8136 73.1918 15.092 75.3323 12.9559C77.4729 10.8198 80.2001 9.36503 83.1692 8.77567C86.1382 8.18632 89.2157 8.4888 92.0125 9.64487C94.8092 10.8009 97.1997 12.7587 98.8815 15.2705C100.563 17.7823 101.461 20.7355 101.461 23.7564C101.456 27.806 99.8424 31.6884 96.973 34.5519C94.1036 37.4154 90.2131 39.0261 86.1552 39.0306ZM86.1552 8.70847C83.1728 8.70847 80.2574 9.59101 77.7777 11.2445C75.298 12.898 73.3653 15.2482 72.224 17.9978C71.0827 20.7475 70.784 23.7731 71.3659 26.6921C71.9477 29.6111 73.3838 32.2924 75.4927 34.3969C77.6015 36.5014 80.2884 37.9346 83.2134 38.5152C86.1385 39.0958 89.1704 38.7978 91.9257 37.6589C94.681 36.52 97.0361 34.5912 98.693 32.1166C100.35 29.642 101.234 26.7326 101.234 23.7564C101.23 19.7668 99.6396 15.9419 96.8127 13.1209C93.9858 10.2998 90.153 8.71296 86.1552 8.70847Z" fill="#3F3D56"/>
            <path d="M85.7017 31.1106C89.7718 31.1106 93.0712 27.818 93.0712 23.7564C93.0712 19.6947 89.7718 16.4021 85.7017 16.4021C81.6317 16.4021 78.3323 19.6947 78.3323 23.7564C78.3323 27.818 81.6317 31.1106 85.7017 31.1106Z" fill="#3F3D56"/>
            <path d="M97.9843 46.0564L93.6067 48.5786L96.1341 52.9472L100.512 50.425L97.9843 46.0564Z" fill="#FF6584"/>
            <path d="M31.1752 21.5735L26.7976 24.0957L29.325 28.4643L33.7027 25.9421L31.1752 21.5735Z" fill="#3F3D56"/>
            <path d="M91.8854 73.5825L87.5078 76.1047L90.0352 80.4733L94.4129 77.9511L91.8854 73.5825Z" fill="#E5E5E5"/>
            <path d="M19.9957 65.0234H16.3406V68.671H19.9957V65.0234Z" fill="#C5B9F4"/>
            <path d="M85.7017 25.5666C86.7036 25.5666 87.5157 24.7561 87.5157 23.7563C87.5157 22.7565 86.7036 21.946 85.7017 21.946C84.6999 21.946 83.8877 22.7565 83.8877 23.7563C83.8877 24.7561 84.6999 25.5666 85.7017 25.5666Z" fill="#C5B9F4"/>
            <path d="M79.4998 48.3357L70.1094 53.7461L75.5309 63.1171L84.9213 57.7067L79.4998 48.3357Z" fill="#C5B9F4"/>
            <path d="M83.0261 91.7234H24.8108V92H83.0261V91.7234Z" fill="#CBCBCB"/>
            <path d="M46.9034 54.411C46.7347 54.1947 46.6156 53.9441 46.5545 53.6769C46.4933 53.4097 46.4916 53.1323 46.5495 52.8644C46.6074 52.5965 46.7235 52.3445 46.8895 52.1261C47.0556 51.9078 47.2676 51.7285 47.5106 51.6007L47.1183 47.3344L49.6581 46.4641L50.1273 52.4968C50.3153 52.9184 50.3417 53.3942 50.2017 53.834C50.0616 54.2738 49.7647 54.647 49.3673 54.8829C48.9699 55.1189 48.4996 55.2012 48.0455 55.1142C47.5914 55.0272 47.185 54.777 46.9034 54.411Z" fill="#FFB8B8"/>
            <path d="M49.6302 29.9244C49.6302 29.9244 51.3731 26.2741 52.9219 27.5581C54.4707 28.8422 50.7986 39.6353 50.7986 39.6353L50.2401 50.113L47.2966 49.8194L46.4644 39.6113L49.6302 29.9244Z" fill="#D85794"/>
            <path d="M26.251 83.9287L28.436 85.6938L36.298 78.1233L33.0731 75.5183L26.251 83.9287Z" fill="#FFB8B8"/>
            <path d="M26.2712 82.7666L30.5743 86.2427L30.5744 86.2428C31.3017 86.8304 31.7652 87.6821 31.8632 88.6107C31.9611 89.5394 31.6854 90.4688 31.0967 91.1946L31.0246 91.2835L23.9792 85.5922L26.2712 82.7666Z" fill="#2F2E41"/>
            <path d="M56.6174 88.8286L59.4286 88.8285L60.7659 78.0078L56.6169 78.008L56.6174 88.8286Z" fill="#FFB8B8"/>
            <path d="M55.9004 87.9126L61.4366 87.9124H61.4368C62.3725 87.9124 63.2698 88.2834 63.9315 88.9436C64.5931 89.6039 64.9648 90.4994 64.9649 91.4331V91.5475L55.9006 91.5479L55.9004 87.9126Z" fill="#2F2E41"/>
            <path d="M61.5503 38.1001C61.5503 38.1001 66.8242 44.5072 65.6777 50.9143C64.5312 57.3214 63.614 62.1267 63.614 62.1267L61.7796 76.5427C61.7796 76.5427 62.4675 80.4688 61.5503 81.4805C61.5503 81.4805 62.9261 83.8651 60.4038 84.7804C57.8815 85.6957 56.5206 84.4642 56.5206 84.4642C56.5206 84.4642 54.6714 81.8057 55.8178 81.1192L56.3008 52.8282L37.9326 76.7715C37.9326 76.7715 37.5949 79.684 35.2415 79.7152L32.4294 81.8057L29.2192 79.9751L30.8243 77.9157C30.8243 77.9157 29.9071 75.6274 31.9708 75.1698L43.8943 59.6097L46.8752 51.6008C46.8752 51.6008 48.4803 45.4225 52.837 42.9054V40.2271L61.5503 38.1001Z" fill="#2F2E41"/>
            <path d="M52.493 27.0021C53.1872 26.1833 54.159 25.648 55.2233 25.498C56.2876 25.348 57.3699 25.594 58.2642 26.1889L58.4547 26.3157C60.49 28.6158 61.858 31.4265 62.4112 34.4449L63.27 39.1299L52.493 41.4596L49.9665 32.7642C49.6458 31.6605 49.723 30.4795 50.1846 29.4268C50.6462 28.374 51.463 27.516 52.493 27.0021Z" fill="#D85794"/>
            <path d="M70.1989 55.407C69.9002 55.3095 69.6264 55.1479 69.397 54.9334C69.1676 54.7189 68.9881 54.4569 68.8712 54.1657C68.7543 53.8746 68.7027 53.5614 68.7202 53.2482C68.7377 52.935 68.8238 52.6294 68.9724 52.353L65.8635 48.556L67.7149 46.1079L72.0298 51.5315C72.4785 51.8114 72.8088 52.2459 72.958 52.7526C73.1072 53.2593 73.065 53.803 72.8393 54.2807C72.6136 54.7584 72.2202 55.1369 71.7335 55.3445C71.2469 55.5521 70.7009 55.5743 70.1989 55.407Z" fill="#FFB8B8"/>
            <path d="M57.0789 30.4346C57.0789 30.4346 56.391 25.8581 58.684 26.0869C60.977 26.3157 64.4165 38.9011 64.4165 38.9011L70.6075 49.1982L67.6266 50.8L60.2891 41.647L57.0789 30.4346Z" fill="#D85794"/>
            <path d="M61.2779 23.7438H50.3589C50.1343 23.7436 49.9189 23.6544 49.7601 23.4959C49.6013 23.3374 49.512 23.1225 49.5117 22.8984V18.2016C49.5117 16.5324 50.1762 14.9316 51.3589 13.7513C52.5416 12.571 54.1458 11.908 55.8184 11.908C57.491 11.908 59.0952 12.571 60.2779 13.7513C61.4606 14.9316 62.1251 16.5324 62.1251 18.2016V22.8984C62.1248 23.1225 62.0355 23.3374 61.8767 23.4959C61.7179 23.6544 61.5025 23.7436 61.2779 23.7438Z" fill="#2F2E41"/>
            <path d="M61.1714 21.2335C62.3963 18.9973 61.5728 16.1937 59.3321 14.9713C57.0913 13.749 54.2819 14.5708 53.057 16.8069C51.8321 19.043 52.6556 21.8466 54.8963 23.069C57.1371 24.2914 59.9465 23.4696 61.1714 21.2335Z" fill="#FFB8B8"/>
            <path d="M63.617 18.6714H57.7979L57.7382 17.7148L57.4399 18.6714H56.5439L56.4256 16.7754L55.8343 18.6714H54.1006V18.5774C54.1006 15.8322 56.0511 13.5989 58.4485 13.5989H59.269C61.6664 13.5989 63.617 15.8322 63.617 18.5774L63.617 18.6714Z" fill="#2F2E41"/>
            <path d="M58.0387 24.6207C57.9676 24.6206 57.8966 24.6152 57.8263 24.6044L50.9001 23.5398V16.3406C50.9001 15.9764 50.972 15.6158 51.1117 15.2794C51.2513 14.943 51.456 14.6373 51.714 14.3798C51.972 14.1223 52.2783 13.9181 52.6155 13.7787C52.9526 13.6394 53.3139 13.5676 53.6788 13.5676H58.5245L58.3358 13.7594C55.7095 16.4277 57.6881 20.7544 59.1012 23.0959C59.205 23.2643 59.2518 23.4614 59.2349 23.6582C59.218 23.8551 59.1382 24.0414 59.0073 24.1896C58.887 24.3275 58.738 24.4375 58.5707 24.512C58.4034 24.5864 58.2219 24.6235 58.0387 24.6207Z" fill="#2F2E41"/>
        </g>
    </g>
    <g filter="url(#filter0_d_949_2263)">
        <path d="M49.6773 54.7563L61.57 45.8368L49.6773 36.9173V54.7563ZM53.6415 26.0156C42.7002 26.0156 33.8203 34.8955 33.8203 45.8368C33.8203 56.7781 42.7002 65.658 53.6415 65.658C64.5828 65.658 73.4627 56.7781 73.4627 45.8368C73.4627 34.8955 64.5828 26.0156 53.6415 26.0156ZM53.6415 61.6937C44.9003 61.6937 37.7845 54.5779 37.7845 45.8368C37.7845 37.0957 44.9003 29.9799 53.6415 29.9799C62.3826 29.9799 69.4984 37.0957 69.4984 45.8368C69.4984 54.5779 62.3826 61.6937 53.6415 61.6937Z" fill="white"/>
    </g>
    <defs>
        <filter id="filter0_d_949_2263" x="29.8203" y="25.0156" width="47.6423" height="47.6423" filterUnits="userSpaceOnUse" color-interpolation-filters="sRGB">
            <feFlood flood-opacity="0" result="BackgroundImageFix"/>
            <feColorMatrix in="SourceAlpha" type="matrix" values="0 0 0 0 0 0 0 0 0 0 0 0 0 0 0 0 0 0 127 0" result="hardAlpha"/>
            <feOffset dy="3"/>
            <feGaussianBlur stdDeviation="2"/>
            <feComposite in2="hardAlpha" operator="out"/>
            <feColorMatrix type="matrix" values="0 0 0 0 0 0 0 0 0 0 0 0 0 0 0 0 0 0 0.25 0"/>
            <feBlend mode="normal" in2="BackgroundImageFix" result="effect1_dropShadow_949_2263"/>
            <feBlend mode="normal" in="SourceGraphic" in2="effect1_dropShadow_949_2263" result="shape"/>
        </filter>
        <clipPath id="clip0_949_2263">
            <rect width="101.461" height="83.5178" fill="white" transform="translate(0 8.48218)"/>
        </clipPath>
    </defs>
</svg>
